<?xml version="1.0" encoding="utf-8"?>
<!-- Generator: Adobe Illustrator 21.0.0, SVG Export Plug-In . SVG Version: 6.00 Build 0)  -->
<svg version="1.1" id="Layer_1" xmlns="http://www.w3.org/2000/svg" xmlns:xlink="http://www.w3.org/1999/xlink" x="0px" y="0px"
	 viewBox="0 0 19 17" style="enable-background:new 0 0 19 17;" xml:space="preserve">
<style type="text/css">
	.st0{fill:#FFFFFF;}
</style>
<path class="st0" d="M0.3,8.2l4.4,1.7l1.7,5.6c0.1,0.4,0.5,0.5,0.8,0.3l2.4-2c0.3-0.2,0.6-0.2,0.9,0l4.4,3.3
	c0.3,0.2,0.7,0.1,0.8-0.3L19,0.6c0.1-0.4-0.3-0.8-0.7-0.6l-18,7.1C-0.1,7.3-0.1,8,0.3,8.2z M6.1,8.9l8.6-5.4
	c0.2-0.1,0.3,0.1,0.2,0.2l-7.1,6.7c-0.2,0.2-0.4,0.6-0.5,0.9l-0.2,1.8c0,0.2-0.4,0.3-0.4,0L5.8,9.9C5.6,9.6,5.8,9.1,6.1,8.9z"/>
</svg>
