<?xml version="1.0" encoding="utf-8"?>
<!-- Generator: Adobe Illustrator 21.0.0, SVG Export Plug-In . SVG Version: 6.00 Build 0)  -->
<svg version="1.1" id="Layer_1" xmlns="http://www.w3.org/2000/svg" xmlns:xlink="http://www.w3.org/1999/xlink" x="0px" y="0px"
	 viewBox="0 0 12 17" style="enable-background:new 0 0 12 17;" xml:space="preserve">
<style type="text/css">
	.st0{fill-rule:evenodd;clip-rule:evenodd;fill:#FFFFFF;}
</style>
<path class="st0" d="M4,11c0,1.7,1.2,2,1.8,2H6h1h3c1.1,0,2,0.9,2,2s-0.9,2-2,2H7c0,0,0,0,0,0c0,0,0,0,0,0H6c-1.7,0-3.1-0.6-4.3-1.9
	C0.6,13.9,0,12.4,0,10.6V3.1V2c0-1.1,0.9-2,2-2c1.1,0,2,0.9,2,2v0.9C4,3,4,3,4,3.1L4,5h3c0,0,0,0,0,0h1c0,0,0,0,0,0h2
	c1.1,0,2,0.9,2,2c0,1.1-0.9,2-2,2H9v0H6v0H4v1V11z"/>
</svg>
